HIERARCHY
ROOT hip
{
	OFFSET 0.000000 0.000000 0.000000 
	CHANNELS 6 Xposition Yposition Zposition Xrotation Zrotation Yrotation
	JOINT abdomen
	{
		OFFSET 0.000000 3.402643 0.000000 
		CHANNELS 3 Xrotation Zrotation Yrotation
		JOINT chest
		{
			OFFSET 0.000000 8.438565 -0.680529 
			CHANNELS 3 Xrotation Zrotation Yrotation
			JOINT neck
			{
				OFFSET 0.000000 10.207942 -0.272212 
				CHANNELS 3 Xrotation Zrotation Yrotation
				JOINT head
				{
					OFFSET 0.000000 3.130431 0.000000 
					CHANNELS 3 Xrotation Zrotation Yrotation
					End Site
					{
						OFFSET 0.000000 3.130435 0.000000 
					}
				}
			}
			JOINT lCollar
			{
				OFFSET 3.470700 6.669187 -0.816635 
				CHANNELS 3 Yrotation Zrotation Xrotation
				JOINT lShldr
				{
					OFFSET 3.198488 0.000000 0.000000 
					CHANNELS 3 Zrotation Yrotation Xrotation
					JOINT lForeArm
					{
						OFFSET 10.139888 0.000000 0.000000 
						CHANNELS 3 Yrotation Zrotation Xrotation
						JOINT lHand
						{
							OFFSET 8.370511 0.000000 0.000000 
							CHANNELS 3 Zrotation Yrotation Xrotation
							End Site
							{
								OFFSET 4.083176 0.000000 0.000000 
							}
						}
					}
				}
			}
			JOINT rCollar
			{
				OFFSET -3.470700 6.669187 -0.816635 
				CHANNELS 3 Yrotation Zrotation Xrotation
				JOINT rShldr
				{
					OFFSET -3.198488 0.000000 0.000000 
					CHANNELS 3 Zrotation Yrotation Xrotation
					JOINT rForeArm
					{
						OFFSET -10.139888 0.000000 0.000000 
						CHANNELS 3 Yrotation Zrotation Xrotation
						JOINT rHand
						{
							OFFSET -8.370511 0.000000 0.000000 
							CHANNELS 3 Zrotation Yrotation Xrotation
							End Site
							{
								OFFSET -4.083176 0.000000 0.000000 
							}
						}
					}
				}
			}
		}
	}
	JOINT lThigh
	{
		OFFSET 5.308129 -1.633274 1.361059 
		CHANNELS 3 Xrotation Zrotation Yrotation
		JOINT lShin
		{
			OFFSET -2.041588 -20.007561 0.000000 
			CHANNELS 3 Xrotation Zrotation Yrotation
			JOINT lFoot
			{
				OFFSET 0.000000 -19.190928 -1.224953 
				CHANNELS 3 Xrotation Yrotation Zrotation
				End Site
				{
					OFFSET 0.000000 -2.449906 4.627600 
				}
			}
		}
	}
	JOINT rThigh
	{
		OFFSET -5.308129 -1.633274 1.361059 
		CHANNELS 3 Xrotation Zrotation Yrotation
		JOINT rShin
		{
			OFFSET 2.041588 -20.007561 0.000000 
			CHANNELS 3 Xrotation Zrotation Yrotation
			JOINT rFoot
			{
				OFFSET 0.000000 -19.190928 -1.224953 
				CHANNELS 3 Xrotation Yrotation Zrotation
				End Site
				{
					OFFSET 0.000000 -2.449906 4.627600 
				}
			}
		}
	}
}
MOTION
Frames: 13
Frame Time: 0.011111
6.775529 50.713158 54.739388 18.537134 0.350837 -3.652384 12.734717 0.799370 6.876395 -26.211451 -1.826226 1.865178 -17.126343 0.680276 0.493099 32.777752 1.405583 1.765641 -5.788594 -15.737329 -1.465587 -39.069950 -37.689911 71.885750 -88.011154 3.980188 33.608494 8.524705 12.647240 12.106066 7.611086 14.174596 -1.900835 50.039791 37.873074 27.893879 86.802719 -2.330507 32.057686 -8.534408 -12.637552 136.156113 -68.202049 7.011275 -9.715816 38.118523 -4.800407 -5.895701 -26.252443 24.510172 6.998495 -18.171610 6.395590 -4.311807 34.368816 5.075680 5.377956 -53.736221 -8.625605 -13.903491 
6.831541 50.693314 54.985195 18.866676 -0.810857 -3.724174 12.402869 2.601808 7.147169 -26.340330 -2.319034 1.837616 -16.653286 0.682161 0.755462 31.075663 1.190620 2.205525 -5.788594 -15.737329 -1.465587 -38.698238 -38.554176 74.291550 -87.416405 3.254041 32.984924 8.524705 12.647240 7.975207 7.611086 14.174596 -1.900835 50.853951 37.635109 28.095091 86.589851 -1.928823 31.580069 -8.534408 -12.637552 137.630722 -69.528160 7.392735 -11.059713 37.780125 -4.843637 -5.850633 -28.188725 22.824528 7.452541 -17.810276 7.371593 -5.224364 34.369354 5.071422 5.376745 -53.325375 -8.553398 -13.569504 
6.828980 50.648823 55.152267 18.986261 -0.945806 -3.671775 12.474922 2.870417 6.787846 -26.809629 -2.274948 1.714269 -16.014370 0.829176 0.984140 29.233076 0.798223 2.598124 -5.788594 -15.737329 -1.465587 -38.233418 -39.568558 76.167725 -86.970879 2.605826 32.356777 8.524705 12.647240 5.065050 7.611086 14.174596 -1.900835 51.614174 37.401382 28.502338 86.430397 -1.594186 31.041567 -8.534408 -12.637552 138.587753 -70.301079 7.187522 -11.479840 37.543377 -4.853107 -5.813615 -31.014116 20.175688 7.973227 -17.684990 7.470445 -5.554397 34.358952 5.075617 5.377068 -53.132343 -8.641221 -13.513358 
6.849465 50.626736 55.341755 18.948706 -1.004266 -3.628409 12.758583 3.132343 6.332622 -27.201220 -2.325020 1.581008 -15.902960 1.108571 1.188406 27.964636 0.313455 2.984323 -5.788594 -15.737329 -1.465587 -37.603275 -40.659069 77.548729 -86.691933 2.122592 31.833544 8.524705 12.647240 3.385362 7.611086 14.174596 -1.900835 52.495651 37.262444 28.873081 86.320724 -1.372848 30.487137 -8.534408 -12.637552 138.861191 -70.747971 6.894773 -11.790228 37.503632 -4.853222 -5.819898 -33.415199 17.678146 8.122503 -17.323071 7.410852 -5.906475 34.258476 5.091500 5.363386 -52.838882 -9.084163 -13.705574 
6.876030 50.566566 55.502750 18.729330 -1.438242 -3.663651 13.558078 3.792399 6.106416 -27.720409 -2.496094 1.493025 -15.830421 1.156174 1.398171 26.426918 0.075863 3.355668 -5.788594 -15.737329 -1.465587 -36.920891 -42.060310 78.853477 -86.507988 1.758788 31.325306 8.524705 12.647240 2.457628 7.611086 14.174596 -1.900835 53.326408 37.157825 28.974752 86.236359 -1.269072 29.905840 -8.534408 -12.637552 138.626816 -71.053085 6.874701 -12.343122 37.395699 -4.849286 -5.809164 -34.705494 16.091482 8.047875 -16.829147 7.848145 -6.059949 34.338505 5.081059 5.376898 -52.852539 -9.435315 -14.009923 
6.926281 50.562401 55.778008 18.543749 -1.184847 -3.467037 13.686563 3.795665 5.487842 -27.603870 -2.536084 1.315783 -15.649326 1.021265 1.659159 24.570711 0.073405 3.779852 -5.788594 -15.737329 -1.465587 -36.079765 -43.862831 80.137772 -86.378296 1.476761 30.803726 8.524705 12.647240 1.969347 7.611086 14.174596 -1.900835 54.005531 37.035130 29.148706 86.149918 -1.304457 29.305647 -8.534408 -12.637552 137.777191 -70.899498 6.192102 -12.359642 37.404377 -4.857050 -5.822179 -34.570358 16.434412 8.163950 -16.319223 7.272148 -6.642227 34.418770 5.065968 5.398888 -52.691357 -9.079590 -13.583527 
6.927562 50.501595 55.965240 18.469393 -1.083868 -3.749617 14.030612 3.697891 5.173194 -27.955009 -2.357454 1.224293 -15.311033 1.149729 1.946858 23.061007 -0.096472 4.362395 -5.788594 -15.737329 -1.465587 -35.153934 -45.405064 81.413361 -86.296852 1.325010 30.333086 8.524705 12.647240 1.315050 7.611086 14.174596 -1.900835 54.561726 36.650368 29.526392 86.025246 -1.485349 28.685305 -8.534408 -12.637552 136.595566 -71.051140 6.132976 -12.355060 37.533173 -4.853299 -5.822502 -34.763199 16.424465 8.242025 -16.107098 7.341258 -6.125582 34.508865 5.056248 5.403891 -52.919556 -8.900592 -13.586920 
6.950606 50.481747 56.196976 18.435423 -0.956119 -3.921779 14.178735 3.659273 4.739369 -28.071968 -2.237613 1.100807 -15.371346 1.548661 2.282924 22.296724 -0.415234 5.125679 -5.788594 -15.737329 -1.465587 -34.109203 -46.949921 82.348282 -86.231972 1.256744 29.867352 8.524705 12.647240 -0.247450 7.611086 14.174596 -1.900835 54.928490 36.479233 29.890779 85.800323 -1.850544 27.952473 -8.534408 -12.637552 135.033066 -71.019653 5.908816 -12.336730 37.761471 -4.833798 -5.845784 -35.822674 15.785407 8.438860 -15.888509 7.206432 -6.027897 34.597057 5.056449 5.431126 -52.718704 -9.346111 -13.836562 
6.977171 50.466385 56.442146 18.554811 -1.318425 -4.048227 14.249942 4.211619 4.546058 -28.111752 -2.331550 1.009174 -15.619020 1.976572 2.538097 21.402632 -0.894676 5.729542 -5.788594 -15.737329 -1.465587 -33.077202 -48.615128 82.989090 -86.159302 1.288820 29.355501 8.524705 12.647240 -2.366590 7.611086 14.174596 -1.900835 55.134914 36.465858 30.008163 85.420555 -2.400518 27.172617 -8.534408 -12.637552 132.952972 -71.421295 5.810844 -12.802952 38.108257 -4.804342 -5.896139 -35.668579 18.512146 9.639429 -15.679572 7.526803 -6.255666 34.704418 5.071632 5.425665 -52.300907 -10.181266 -14.262568 
6.994135 50.415493 56.644436 18.518963 -1.697746 -4.183755 14.751759 4.709467 4.454430 -28.278408 -2.399426 0.948667 -16.227367 2.242895 2.781264 20.571007 -1.180135 6.275670 -5.788594 -15.737329 -1.465587 -31.917494 -50.489330 83.483902 -86.067017 1.413728 28.856932 8.524705 12.647240 -4.700574 7.611086 14.174596 -1.900835 55.322449 36.549007 29.846376 84.802361 -3.138499 26.298740 -8.534408 -12.637552 130.140488 -71.157433 6.728740 -10.452082 38.593662 -4.775182 -5.928752 -31.910538 22.930244 9.422219 -15.351207 7.938411 -6.238931 34.864105 5.052538 5.454255 -52.202393 -10.510522 -14.452325 
7.048867 50.374844 56.938572 18.490816 -1.489961 -5.297228 14.941804 4.434436 4.842912 -28.297426 -2.348987 1.069755 -16.483139 2.367669 3.047195 19.499664 -1.257990 6.832909 -5.788594 -15.737329 -1.465587 -30.755827 -52.129787 83.654228 -85.939697 1.616566 28.342470 8.524705 12.647240 -7.122449 7.611086 14.174596 -1.900835 55.468945 36.369904 29.749025 83.934822 -3.974394 25.370077 -8.534408 -12.637552 127.220566 -70.942757 7.246409 -9.996357 39.116928 -4.745899 -6.003968 -32.955532 22.962013 10.011222 -15.003667 7.906618 -5.260447 35.014317 5.032597 5.470990 -51.893585 -10.438232 -14.196019 
7.013659 50.316593 57.176067 19.358162 -1.194754 -7.004405 14.098282 3.769874 5.538958 -28.500116 -1.979255 1.302195 -16.229626 2.258907 3.356656 18.464787 -0.992796 7.451000 -5.788594 -15.737329 -1.465587 -29.668869 -53.335155 83.736435 -85.751183 1.920137 27.819275 8.524705 12.647240 -9.397840 7.611086 14.174596 -1.900835 55.585514 35.771812 29.568094 82.795242 -4.871360 24.401058 -8.534408 -12.637552 124.466660 -71.755600 8.573819 -8.973355 39.652405 -4.693053 -6.062238 -32.593670 24.502466 10.368334 -15.601868 8.210433 -3.690878 35.142605 5.032761 5.482297 -51.550571 -10.109395 -13.690809 
7.003097 50.285542 57.466366 19.908360 -1.110379 -7.570745 13.488023 3.595272 5.575931 -28.626875 -1.942443 1.330368 -15.940507 2.340742 3.569309 17.330307 -0.897428 7.919637 -5.788594 -15.737329 -1.465587 -28.354683 -54.586918 83.787224 -85.487129 2.306045 27.277990 8.524705 12.647240 -11.077529 7.611086 14.174596 -1.900835 55.687592 35.191753 29.128895 81.401878 -5.756430 23.390289 -8.534408 -12.637552 121.995949 -72.061951 9.120954 -7.930572 40.138302 -4.640771 -6.116064 -29.252785 27.896534 9.527193 -15.753815 8.335266 -2.948334 35.182419 5.032675 5.476045 -51.534752 -9.641960 -13.286317 
